<svg width="20" height="21" viewBox="0 0 20 21" fill="none" xmlns="http://www.w3.org/2000/svg">
<path d="M19.6758 20.7782H11.5819C5.19471 20.7782 0 15.71 0 9.47836H3.72648C3.72648 13.7031 7.25172 17.1425 11.5819 17.1425H19.6758V20.7782Z" fill="white"/>
<path d="M9.8379 0C4.40097 0 0 4.29744 0 9.60197C0 14.9065 4.40097 13.3213 9.8379 13.3213C15.2748 13.3213 19.6795 14.9029 19.6795 9.60197C19.6795 4.30107 15.2711 0 9.8379 0ZM9.8379 9.59834C6.51015 9.59834 3.81591 12.845 3.81591 9.59834C3.81591 6.35163 6.51015 3.72299 9.8379 3.72299C13.1656 3.72299 15.8599 6.35163 15.8599 9.59834C15.8599 12.845 13.1656 9.59834 9.8379 9.59834Z" fill="white"/>
</svg>
