<svg width="42" height="42" viewBox="0 0 42 42" fill="none" xmlns="http://www.w3.org/2000/svg">
<path d="M10.3995 19.7562L10.1788 20.473H10.1788L10.3995 19.7562ZM10.2216 14.416L9.95396 13.7154L10.2216 14.416ZM21.8374 22.7619L21.6168 22.0451L21.8374 22.7619ZM20.1624 22.7619L20.383 22.0451L20.1624 22.7619ZM31.7783 14.416L32.0459 13.7154L31.7783 14.416ZM31.6003 19.7562L31.3797 19.0394L31.6003 19.7562ZM22.0153 10.6873L22.2829 9.98663L22.0153 10.6873ZM19.9845 10.6873L19.7169 9.98663L19.9845 10.6873ZM12.4888 20.3995L12.7095 19.6827L12.4888 20.3995ZM7.64991 23.0199C7.64991 23.4341 7.9857 23.7699 8.39991 23.7699C8.81412 23.7699 9.14991 23.4341 9.14991 23.0199H7.64991ZM23.8369 30.75H18.1629V32.25H23.8369V30.75ZM18.1629 30.75C15.4408 30.75 13.2388 28.5521 13.2388 25.8465H11.7388C11.7388 29.3856 14.6175 32.25 18.1629 32.25V30.75ZM28.761 25.8465C28.761 28.5521 26.559 30.75 23.8369 30.75V32.25C27.3823 32.25 30.261 29.3856 30.261 25.8465H28.761ZM21.7477 11.3879L31.5107 15.1167L32.0459 13.7154L22.2829 9.98663L21.7477 11.3879ZM10.4892 15.1167L20.2521 11.3879L19.7169 9.98663L9.95396 13.7154L10.4892 15.1167ZM21.6168 22.0451C21.2149 22.1688 20.7849 22.1688 20.383 22.0451L19.9417 23.4787C20.6311 23.691 21.3687 23.691 22.0581 23.4787L21.6168 22.0451ZM31.5107 15.1167C33.3599 15.8229 33.2732 18.4565 31.3797 19.0394L31.821 20.473C35.0765 19.4708 35.2288 14.9311 32.0459 13.7154L31.5107 15.1167ZM22.2829 9.98663C21.4568 9.67112 20.543 9.67112 19.7169 9.98663L20.2521 11.3879C20.7335 11.204 21.2663 11.204 21.7477 11.3879L22.2829 9.98663ZM31.3797 19.0394L29.2903 19.6827L29.7317 21.1163L31.821 20.473L31.3797 19.0394ZM29.2903 19.6827L21.6168 22.0451L22.0581 23.4787L29.7317 21.1163L29.2903 19.6827ZM28.761 20.3995V25.8465H30.261V20.3995H28.761ZM20.383 22.0451L12.7095 19.6827L12.2681 21.1163L19.9417 23.4787L20.383 22.0451ZM12.7095 19.6827L10.6201 19.0394L10.1788 20.473L12.2681 21.1163L12.7095 19.6827ZM13.2388 25.8465V20.3995H11.7388V25.8465H13.2388ZM10.6201 19.0394C9.6422 18.7384 9.14795 17.9053 9.14991 17.0465L7.64991 17.0431C7.64662 18.487 8.50189 19.9568 10.1788 20.473L10.6201 19.0394ZM9.14991 17.0465C9.15174 16.2433 9.58896 15.4605 10.4892 15.1167L9.95396 13.7154C8.41655 14.3026 7.65302 15.683 7.64991 17.0431L9.14991 17.0465ZM7.64991 17.0448V23.0199H9.14991V17.0448H7.64991Z" fill="#0169C2"/>
</svg>
