<svg width="28" height="30" viewBox="0 0 28 30" fill="none" xmlns="http://www.w3.org/2000/svg">
<path d="M27.5461 29.6832H16.2146C7.27259 29.6832 0 22.4429 0 13.5405H5.21707C5.21707 19.5758 10.1524 24.4893 16.2146 24.4893H27.5461V29.6832Z" fill="#0071BC"/>
<path d="M13.7731 0C6.16136 0 0 6.1392 0 13.7171C0 21.295 6.16136 19.0305 13.7731 19.0305C21.3848 19.0305 27.5513 21.2898 27.5513 13.7171C27.5513 6.14439 21.3795 0 13.7731 0ZM13.7731 13.7119C9.11422 13.7119 5.34228 18.3501 5.34228 13.7119C5.34228 9.07375 9.11422 5.31856 13.7731 5.31856C18.4319 5.31856 22.2038 9.07375 22.2038 13.7119C22.2038 18.3501 18.4319 13.7119 13.7731 13.7119V13.7119Z" fill="#0071BC"/>
</svg>
