<svg width="42" height="42" viewBox="0 0 42 42" fill="none" xmlns="http://www.w3.org/2000/svg">
<path d="M15.6054 12.6557L14.9257 11.9222L15.6054 12.6557ZM19.5436 9.67089L19.8403 10.6259L19.5436 9.67089ZM26.3944 12.6557L25.7148 13.3893L26.3944 12.6557ZM22.4562 9.67089L22.1595 10.6259L22.4562 9.67089ZM11.1518 33.0341L10.6873 33.9197L11.1518 33.0341ZM8.94923 30.7667L8.053 31.2103L8.94923 30.7667ZM33.0506 30.7667L33.9468 31.2103L33.0506 30.7667ZM30.848 33.0341L31.3125 33.9197L30.848 33.0341ZM33.4415 20.3516L34.4117 20.1096L33.4415 20.3516ZM30.9304 16.8583L31.6101 16.1248L30.9304 16.8583ZM32.7574 18.7704L33.5975 18.228L32.7574 18.7704ZM8.55833 20.3516L7.58807 20.1096H7.58807L8.55833 20.3516ZM11.0694 16.8583L10.3897 16.1248L11.0694 16.8583ZM9.24242 18.7704L8.40229 18.228L9.24242 18.7704ZM22.8652 24.2573L22.6064 25.2232L22.8652 24.2573ZM25.0926 26.4847L26.0585 26.2259V26.2259L25.0926 26.4847ZM19.1346 24.2573L18.8758 23.2914V23.2914L19.1346 24.2573ZM16.9072 26.4847L15.9413 26.2259L16.9072 26.4847ZM32.5999 23.0287V25.2982H34.5999V23.0287H32.5999ZM25.5359 32.5996H16.4639V34.5996H25.5359V32.5996ZM9.3999 25.2982V23.0287H7.3999V25.2982H9.3999ZM11.749 17.5919L16.285 13.3893L14.9257 11.9222L10.3897 16.1248L11.749 17.5919ZM25.7148 13.3893L30.2508 17.5919L31.6101 16.1248L27.0741 11.9222L25.7148 13.3893ZM16.285 13.3893C17.2499 12.4953 17.9318 11.8645 18.5055 11.4109C19.0698 10.9646 19.4666 10.742 19.8403 10.6259L19.2469 8.71593C18.5425 8.9348 17.9235 9.32129 17.2649 9.84209C16.6156 10.3555 15.8676 11.0496 14.9257 11.9222L16.285 13.3893ZM27.0741 11.9222C26.1322 11.0496 25.3842 10.3555 24.7349 9.84208C24.0763 9.32129 23.4573 8.9348 22.7529 8.71593L22.1595 10.6259C22.5332 10.742 22.93 10.9646 23.4943 11.4109C24.068 11.8645 24.7499 12.4953 25.7148 13.3893L27.0741 11.9222ZM19.8403 10.6259C20.5968 10.3908 21.403 10.3908 22.1595 10.6259L22.7529 8.71593C21.61 8.3608 20.3899 8.3608 19.2469 8.71593L19.8403 10.6259ZM16.4639 32.5996C15.0356 32.5996 14.0263 32.5988 13.2375 32.5324C12.4612 32.4671 11.9884 32.3437 11.6163 32.1485L10.6873 33.9197C11.3933 34.29 12.1652 34.4493 13.0698 34.5254C13.9619 34.6004 15.0696 34.5996 16.4639 34.5996V32.5996ZM7.3999 25.2982C7.3999 26.735 7.39917 27.8711 7.4717 28.785C7.5451 29.7098 7.69822 30.4935 8.053 31.2103L9.84546 30.3231C9.65091 29.93 9.52937 29.4324 9.46543 28.6268C9.40064 27.8104 9.3999 26.7671 9.3999 25.2982H7.3999ZM11.6163 32.1485C10.8583 31.7509 10.2367 31.1136 9.84546 30.3231L8.053 31.2103C8.62812 32.3722 9.54857 33.3224 10.6873 33.9197L11.6163 32.1485ZM32.5999 25.2982C32.5999 26.7671 32.5992 27.8104 32.5344 28.6268C32.4704 29.4324 32.3489 29.93 32.1543 30.3231L33.9468 31.2103C34.3016 30.4935 34.4547 29.7098 34.5281 28.785C34.6006 27.8711 34.5999 26.735 34.5999 25.2982H32.5999ZM25.5359 34.5996C26.9303 34.5996 28.0379 34.6004 28.93 34.5254C29.8346 34.4493 30.6065 34.29 31.3125 33.9197L30.3835 32.1485C30.0114 32.3437 29.5386 32.4671 28.7624 32.5324C27.9736 32.5988 26.9642 32.5996 25.5359 32.5996V34.5996ZM32.1543 30.3231C31.7631 31.1136 31.1415 31.7509 30.3835 32.1485L31.3125 33.9197C32.4512 33.3224 33.3717 32.3722 33.9468 31.2103L32.1543 30.3231ZM34.5999 23.0287C34.5999 21.7173 34.6069 20.8916 34.4117 20.1096L32.4712 20.5937C32.593 21.0816 32.5999 21.6173 32.5999 23.0287H34.5999ZM30.2508 17.5919C31.2708 18.5369 31.6488 18.897 31.9173 19.3128L33.5975 18.228C33.1609 17.5517 32.556 17.0011 31.6101 16.1248L30.2508 17.5919ZM34.4117 20.1096C34.2449 19.4409 33.9699 18.8049 33.5975 18.228L31.9173 19.3128C32.1697 19.7038 32.3572 20.1367 32.4712 20.5937L34.4117 20.1096ZM9.3999 23.0287C9.3999 21.6173 9.40685 21.0816 9.52859 20.5937L7.58807 20.1096C7.39295 20.8916 7.3999 21.7173 7.3999 23.0287H9.3999ZM10.3897 16.1248C9.44382 17.0011 8.83888 17.5517 8.40229 18.228L10.0825 19.3128C10.351 18.897 10.729 18.5369 11.749 17.5919L10.3897 16.1248ZM9.52859 20.5937C9.6426 20.1367 9.83011 19.7038 10.0825 19.3128L8.40229 18.228C8.02986 18.8049 7.75488 19.4409 7.58807 20.1096L9.52859 20.5937ZM24.1999 28.35V33.6H26.1999V28.35H24.1999ZM17.7999 33.6V28.35H15.7999V33.6H17.7999ZM20.9999 25.15C22.0408 25.15 22.365 25.1586 22.6064 25.2232L23.124 23.2914C22.5642 23.1414 21.912 23.15 20.9999 23.15V25.15ZM26.1999 28.35C26.1999 27.4379 26.2085 26.7857 26.0585 26.2259L24.1266 26.7435C24.1913 26.9849 24.1999 27.3091 24.1999 28.35H26.1999ZM22.6064 25.2232C23.3483 25.4221 23.9278 26.0016 24.1266 26.7435L26.0585 26.2259C25.6748 24.7938 24.5561 23.6751 23.124 23.2914L22.6064 25.2232ZM20.9999 23.15C20.0878 23.15 19.4356 23.1414 18.8758 23.2914L19.3934 25.2232C19.6348 25.1586 19.9591 25.15 20.9999 25.15V23.15ZM17.7999 28.35C17.7999 27.3091 17.8085 26.9849 17.8732 26.7435L15.9413 26.2259C15.7913 26.7857 15.7999 27.4379 15.7999 28.35H17.7999ZM18.8758 23.2914C17.4437 23.6751 16.325 24.7938 15.9413 26.2259L17.8732 26.7435C18.072 26.0016 18.6515 25.4221 19.3934 25.2232L18.8758 23.2914Z" fill="#BDBDCD"/>
</svg>
