<svg width="42" height="42" viewBox="0 0 42 42" fill="none" xmlns="http://www.w3.org/2000/svg">
<path d="M29.6998 33.6C29.6998 34.0142 30.0356 34.35 30.4498 34.35C30.864 34.35 31.1998 34.0142 31.1998 33.6H29.6998ZM10.7998 33.6C10.7998 34.0142 11.1356 34.35 11.5498 34.35C11.964 34.35 12.2998 34.0142 12.2998 33.6H10.7998ZM27.3373 16.695C27.3373 20.2977 24.4845 23.19 20.9998 23.19V24.69C25.3438 24.69 28.8373 21.0949 28.8373 16.695H27.3373ZM20.9998 23.19C17.5152 23.19 14.6623 20.2977 14.6623 16.695H13.1623C13.1623 21.0949 16.6558 24.69 20.9998 24.69V23.19ZM14.6623 16.695C14.6623 13.0923 17.5152 10.2 20.9998 10.2V8.70001C16.6558 8.70001 13.1623 12.2951 13.1623 16.695H14.6623ZM20.9998 10.2C24.4845 10.2 27.3373 13.0923 27.3373 16.695H28.8373C28.8373 12.2951 25.3438 8.70001 20.9998 8.70001V10.2ZM12.2998 33.6C12.2998 32.2546 12.301 31.0343 12.4414 29.935C12.5811 28.8417 12.8524 27.9294 13.3525 27.1893C14.3194 25.7583 16.351 24.69 20.9998 24.69V23.19C16.1986 23.19 13.5052 24.2842 12.1096 26.3494C11.4285 27.3575 11.1091 28.5267 10.9535 29.7449C10.7986 30.9569 10.7998 32.2779 10.7998 33.6H12.2998ZM20.9831 24.6898C25.6406 24.7933 27.6805 25.8591 28.6501 27.2724C29.1487 27.9992 29.4191 28.891 29.5584 29.9658C29.6986 31.0479 29.6998 32.2541 29.6998 33.6H31.1998C31.1998 32.2784 31.201 30.9696 31.0459 29.773C30.8899 28.5693 30.5696 27.4189 29.887 26.4238C28.4941 24.3934 25.809 23.2967 21.0165 23.1902L20.9831 24.6898Z" fill="#BDBDCD"/>
</svg>
